<svg width="18" height="18" viewBox="0 0 18 18" fill="none" xmlns="http://www.w3.org/2000/svg">
<path d="M14.3337 8.99996C14.3337 11.9455 11.9458 14.3333 9.00033 14.3333C6.05481 14.3333 3.66699 11.9455 3.66699 8.99996C3.66699 6.05444 6.05481 3.66663 9.00033 3.66663C11.9458 3.66663 14.3337 6.05444 14.3337 8.99996Z" fill="#9EA0FF"/>
<path fill-rule="evenodd" clip-rule="evenodd" d="M18 9C18 13.9706 13.9706 18 9 18C4.02944 18 0 13.9706 0 9C0 4.02944 4.02944 0 9 0C13.9706 0 18 4.02944 18 9ZM9 17C13.4183 17 17 13.4183 17 9C17 4.58172 13.4183 1 9 1C4.58172 1 1 4.58172 1 9C1 13.4183 4.58172 17 9 17Z" fill="#9EA0FF"/>
</svg>
